<?xml version="1.0" encoding="utf-8"?>
<!-- Generator: Adobe Illustrator 22.0.1, SVG Export Plug-In . SVG Version: 6.00 Build 0)  -->
<svg version="1.1" id="Layer_1" xmlns="http://www.w3.org/2000/svg" xmlns:xlink="http://www.w3.org/1999/xlink" x="0px" y="0px"
	 viewBox="0 0 203.49 119.73" enable-background="new 0 0 203.49 119.73" xml:space="preserve">
<polygon fill="#FC1921" points="125.72,40.31 110.48,67.12 125.72,67.12 "/>
<g>
	<path fill="#20201E" d="M77.51,50.38H63.95l-9.01,16.26h11.51l-1.12,3.47C62.45,78.6,53.34,85.1,46.09,85.1
		c-13.61,0-23.36-10.49-23.36-24.48c0-12.99,8.12-23.99,22.87-23.99c0.55,0,1.08,0.02,1.61,0.04v-0.08h22.91
		c-4.97-8.87-6.78-12.03-11.75-20.77c-5.12,0-8.14-0.17-13.9-0.17C19.61,15.66,0,36.38,0,60.87s19.61,45.22,44.47,45.22
		c23.37,0,39.52-16.82,43.74-36.44C81.43,57.43,77.51,50.38,77.51,50.38"/>
	<path fill="#20201E" d="M177.8,42.05c0-3.75,2.24-5.07,4.99-5.07h15.92l-11.82-21.13h-7.21c-13.63,0-26.15,10.18-26.15,24.74
		c0,14.71,24.15,27.71,24.15,35.92c0,5.59-3.51,7.6-8.5,7.6l-14.77,0.01l9.86,17.67l2.15,3.88h11.39
		c13.01,0,25.69-11.84,25.69-26.04C203.49,59.13,177.8,49.41,177.8,42.05"/>
	<path fill="#FC1921" d="M154.41,84.11h-0.9h-8.56v20.47h-19.23V84.11H95.45l11.89,21.3c0,0,7.69,14.32,28.88,14.32
		c28.87,0,37.9-0.15,37.9-0.15l-7.71-13.92l-2.15-3.88L154.41,84.11z"/>
	<path fill="#FC1921" d="M113.59,26.45c5.37-9.81-0.44-17.87-0.44-17.87S108,0,92.01,0H49.42l38.83,70.07
		C88.25,70.07,108.22,36.26,113.59,26.45"/>
</g>
</svg>
